<svg xmlns="http://www.w3.org/2000/svg" viewBox="0 0 100 100">
  <defs>
    <filter id="glow">
      <feGaussianBlur stdDeviation="3" result="blur"/>
      <feMerge>
        <feMergeNode in="blur"/>
        <feMergeNode in="SourceGraphic"/>
      </feMerge>
    </filter>
  </defs>
  <g filter="url(#glow)">
    <path d="M50 10 C 80 10, 85 45, 75 80 C 60 95, 40 95, 25 80 C 15 45, 20 10, 50 10 Z" fill="rgba(0,180,255,0.4)" stroke="#00b4ff" stroke-width="2"/>
    <path d="M22 35 C 22 10, 78 10, 78 35 C 78 48, 22 48, 22 35 Z" fill="rgba(0,180,255,0.6)" stroke="#00b4ff" stroke-width="2"/>
    <line x1="23" y1="48" x2="77" y2="48" stroke="#00b4ff" stroke-width="2"/>
    <line x1="25" y1="58" x2="75" y2="58" stroke="#00b4ff" stroke-width="2"/>
    <line x1="28" y1="68" x2="72" y2="68" stroke="#00b4ff" stroke-width="2"/>
    <path d="M40 38 L40 85 M60 38 L60 85" stroke="#00b4ff" stroke-width="2"/>
    <circle cx="33" cy="27" r="4" fill="#00ffd5"/>
    <circle cx="67" cy="27" r="4" fill="#00ffd5"/>
  </g>
</svg>
