<svg xmlns="http://www.w3.org/2000/svg" viewBox="0 0 120 120">
  <defs>
    <filter id="glow">
      <feGaussianBlur stdDeviation="3" result="blur"/>
      <feMerge>
        <feMergeNode in="blur"/>
        <feMergeNode in="SourceGraphic"/>
      </feMerge>
    </filter>
  </defs>
  <g filter="url(#glow)" transform="translate(10, 10)">
    <path d="M50 75 L50 105 L44 92 Z M50 75 L50 105 L56 92 Z" fill="#ff007f"/>
    <path d="M38 70 L62 70 L55 82 L45 82 Z" fill="rgba(255,0,127,0.4)" stroke="#ff007f" stroke-width="1.5"/>
    <path d="M36 60 L64 60 L62 70 L38 70 Z" fill="rgba(255,0,127,0.4)" stroke="#ff007f" stroke-width="1.5"/>
    <path d="M34 50 L66 50 L64 60 L36 60 Z" fill="rgba(255,0,127,0.4)" stroke="#ff007f" stroke-width="1.5"/>
    <path d="M32 40 L68 40 L66 50 L34 50 Z" fill="rgba(255,0,127,0.4)" stroke="#ff007f" stroke-width="1.5"/>
    <path d="M50 12 C 75 12, 80 30, 70 42 L 30 42 C 20 30, 25 12, 50 12 Z" fill="rgba(255,0,127,0.6)" stroke="#ff007f" stroke-width="2"/>
    <path d="M30 30 L10 12 C 5 18, 15 25, 22 36 Z" fill="#ff007f"/>
    <path d="M70 30 L90 12 C 95 18, 85 25, 78 36 Z" fill="#ff007f"/>
    <path d="M28 45 L5 56 C 12 68, 22 58, 30 52 Z" fill="rgba(255,0,127,0.5)" stroke="#ff007f" stroke-width="1"/>
    <path d="M72 45 L95 56 C 88 68, 78 58, 70 52 Z" fill="rgba(255,0,127,0.5)" stroke="#ff007f" stroke-width="1"/>
    <circle cx="42" cy="25" r="3.5" fill="#fff"/>
    <circle cx="58" cy="25" r="3.5" fill="#fff"/>
  </g>
</svg>
